<svg xmlns="http://www.w3.org/2000/svg" width="116.11533" height="120.61458" viewBox="0 0 116.11533 120.61458"><title>Kings_Autos_logo_v2</title><path d="M8.11441,61.46029c-3.5332,0-7.44727-.42286-8.0542-5.49268-.71728-5.98535,5.126-12.90332,9.439-15.39746,5.5039-3.18262,12.772-2.95459,19.80175-2.73438,3.12256.09717,6.34717.19873,9.39405.00489,17.07373-15.76758,38.15527-16.01026,55.09326-.603a.99989.99989,0,0,1-.42188,1.70752,8.80174,8.80174,0,0,1-7.3291-1.30371c-11.81055-8.38428-25.646-8.15332-36.23486.28955a67.28384,67.28384,0,0,1,34.10791,1.04053.99993.99993,0,0,1-.56641,1.918A65.39113,65.39113,0,0,0,46.37369,40.89a.99989.99989,0,0,1-.99317-1.66162C56.9772,27.474,73.39029,26.21077,87.19546,36.01058a6.68288,6.68288,0,0,0,3.54,1.21826C74.66324,23.81234,55.7648,24.61556,39.799,39.54476a1.0032,1.0032,0,0,1-.61133.26709,97.96994,97.96994,0,0,1-9.94922.023c-7.0625-.22266-13.72851-.43115-18.73828,2.46679-3.92969,2.27247-9.04687,8.48-8.45459,13.42774.43408,3.6206,2.99024,3.7749,7.1128,3.72217l.0288-.00049c-.313-4.73877.85791-8.45557,3.48829-11.05762,3.53906-3.50195,9.6831-4.8374,17.76562-3.8584,10.72168,1.29688,23.31445,1.01123,39.62793-.8999a1,1,0,0,1,.94189,1.55713C64.36,54.93245,54.66568,56.88558,43.36734,57.96077a259.007,259.007,0,0,0,28.49463.64161,13.59293,13.59293,0,0,1,3.31885-9.8794,12.69493,12.69493,0,0,1,9.50879-4.30664,12.55366,12.55366,0,0,1,9.07959,3.72608,12.87013,12.87013,0,0,1,3.58007,8.26171l1.67041-.021a84.47437,84.47437,0,0,1,13.20264-31.33936c-9.02246,3.69141-15.81934,3.97168-20.23633.82666-4.23926-3.01758-6.23486-9.15967-5.95508-18.29248C81.51285,15.49007,75.069,19.89534,67.52066,20.11409c-8.99756.27247-18.2832-5.58349-24.13184-14.87451-.01074,9.9458-3.5039,18.06787-9.541,21.74659C29.4523,29.66341,21.69351,31.23763,9.69009,23.516a.99984.99984,0,0,1,1.082-1.68164c8.812,5.66748,16.43116,6.85889,22.03516,3.44385,6.23389-3.79834,9.4458-13.06494,8.38233-24.18262a1,1,0,0,1,1.89648-.5293c5.189,10.76856,14.99219,17.81494,24.37646,17.54883,8.09815-.23486,14.84864-5.91943,19.00782-16.00732a.99984.99984,0,0,1,1.91845.48828c-1.209,11.25488.39112,18.5376,4.75733,21.64551,4.30859,3.06591,11.55664,2.23584,21.543-2.47071a.99987.99987,0,0,1,1.23193,1.49659c-7.74414,10.53222-13.09814,22.7041-15.07568,34.27343a1.00069,1.00069,0,0,1-.97315.83155l-3.49316.04443a.92041.92041,0,0,1-.72363-.29639.99993.99993,0,0,1-.28858-.72656,10.91492,10.91492,0,0,0-3.02783-7.854,10.57181,10.57181,0,0,0-7.64941-3.12354,10.69162,10.69162,0,0,0-8.00879,3.62988,11.76088,11.76088,0,0,0-2.73536,9.40088.99964.99964,0,0,1-.9624,1.124,270.39716,270.39716,0,0,1-39.84228-1.54,1.103,1.103,0,0,1,.01123-2.19434c1.72265-.16211,3.41992-.30225,5.08789-.43945,12.105-.99707,22.66211-1.8667,29.7583-10.51416-15.3667,1.69189-27.42529,1.89306-37.79736.6372-5.19971-.63037-12.21631-.56787-16.11914,3.29493-2.374,2.34912-3.31934,5.88769-2.80909,10.51757a1.00021,1.00021,0,0,1-.99414,1.10938c-.3623,0-.72851.00439-1.09521.00928C8.83365,61.45589,8.47623,61.46029,8.11441,61.46029Z" fill="#232325"/><path d="M21.39468,66.74447a9.65113,9.65113,0,1,1,9.65137-9.65088A9.6621,9.6621,0,0,1,21.39468,66.74447Zm0-17.30225a7.65113,7.65113,0,1,0,7.65137,7.65137A7.65991,7.65991,0,0,0,21.39468,49.44222Z" fill="#232325"/><path d="M84.68961,66.74447a9.65113,9.65113,0,1,1,9.65087-9.65088A9.6622,9.6622,0,0,1,84.68961,66.74447Zm0-17.30225a7.65113,7.65113,0,1,0,7.65087,7.65137A7.66033,7.66033,0,0,0,84.68961,49.44222Z" fill="#232325"/><path d="M97.87125,101.24935H2.988a.5.5,0,1,1,0-1h94.8833a.5.5,0,0,1,0,1Z" fill="#232325"/><path d="M6.26285,107.34408H5.58951l-.05322-.04493-.09131.10547v-.06054H4.8649v.0205l-.09082-.06543-.05371.04493H4.047L.04556,120.43294H1.07633L2.2731,116.5345H8.03629l1.19677,3.89844h1.03077Zm-3.66992,8.15917,2.23633-7.14648h.65136l2.24805,7.14648Z" fill="#232325"/><path d="M17.61246,110.97005v7.83106a5.80093,5.80093,0,0,1-1.30176.582,5.41365,5.41365,0,0,1-1.60059.23633,2.12978,2.12978,0,0,1-1.27685-.31446,1.71228,1.71228,0,0,1-.56885-1.06836,12.89288,12.89288,0,0,1-.168-2.4082v-4.8584H11.66519v4.91309a12.618,12.618,0,0,0,.24121,2.83105,2.31877,2.31877,0,0,0,.91846,1.46,3.43464,3.43464,0,0,0,1.88525.42188,5.924,5.924,0,0,0,1.7168-.22656,5.643,5.643,0,0,0,1.16748-.50879v.57226h1.06738v-9.46289Z" fill="#232325"/><path d="M26.06412,119.47591l-1.92578.17969a1.43149,1.43149,0,0,1-.98731-.27149,1.47837,1.47837,0,0,1-.38476-.874,14.91485,14.91485,0,0,1-.09766-2.01074v-4.55176H25.987v-.97754H22.66861v-2.93652H21.65592v2.93652H20.2233v.97754h1.43262v5.24121a7.31191,7.31191,0,0,0,.21679,2.03418,1.80441,1.80441,0,0,0,.76807,1.083,2.75524,2.75524,0,0,0,1.40723.30859c.3081,0,.94873-.04785,1.959-.14648l.20947-.02051Z" fill="#232325"/><path d="M34.40054,112.8597a2.61991,2.61991,0,0,0-1.19873-1.583,4.87434,4.87434,0,0,0-2.35449-.46972,4.952,4.952,0,0,0-2.353.46,2.61509,2.61509,0,0,0-1.20849,1.57324,10.30226,10.30226,0,0,0-.33545,2.9707,10.08142,10.08142,0,0,0,.3081,2.82324,2.46183,2.46183,0,0,0,1.18311,1.5127,5.2062,5.2062,0,0,0,2.40576.44922,5.02,5.02,0,0,0,2.40772-.46,2.462,2.462,0,0,0,1.17285-1.51172,10.28129,10.28129,0,0,0,.29834-2.81348A10.50271,10.50271,0,0,0,34.40054,112.8597Zm-1.72363,6.39746a3.67349,3.67349,0,0,1-1.81152.34375,3.79029,3.79029,0,0,1-1.83155-.34473,1.68181,1.68181,0,0,1-.77832-1.08593,9.62185,9.62185,0,0,1-.21972-2.35938,10.25033,10.25033,0,0,1,.23779-2.54A1.74066,1.74066,0,0,1,29.068,112.139a3.78163,3.78163,0,0,1,1.79737-.33692,3.67338,3.67338,0,0,1,1.77734.33594,1.72587,1.72587,0,0,1,.769,1.12109,10.65177,10.65177,0,0,1,.229,2.55176,10.007,10.007,0,0,1-.21094,2.36914A1.6667,1.6667,0,0,1,32.67691,119.25716Z" fill="#232325"/><path d="M48.18961,114.77669a2.54538,2.54538,0,0,0-1.23584-1.04394,10.13373,10.13373,0,0,0-2.19873-.583,13.41478,13.41478,0,0,1-2.28272-.57813,1.37083,1.37083,0,0,1-.791-.64843,3.82212,3.82212,0,0,1-.1919-1.42481c0-1.57519.98486-2.34082,3.01074-2.34082.52784,0,1.71582.10938,3.53077.3252l.19873.02343.11572-1.04394-.1919-.02539a27.40432,27.40432,0,0,0-3.63525-.27442,4.83235,4.83235,0,0,0-3.10889.835,3.11874,3.11874,0,0,0-1.02392,2.5371,3.91759,3.91759,0,0,0,.41748,1.97657,2.64617,2.64617,0,0,0,1.29931,1.08886,11.1758,11.1758,0,0,0,2.40381.61231,8.74213,8.74213,0,0,1,1.99024.49219,1.54041,1.54041,0,0,1,.80029.66894,2.89892,2.89892,0,0,1,.21484,1.25293c0,1.97754-.979,2.93848-2.99316,2.93848a31.86317,31.86317,0,0,1-3.74512-.32422l-.20019-.02637-.11817,1.03321.853.09375c1.4834.1455,2.57568.21875,3.24707.21875a4.15255,4.15255,0,0,0,3.06055-.98438,4.18376,4.18376,0,0,0,.96338-3.02148A3.54676,3.54676,0,0,0,48.18961,114.77669Z" fill="#232325"/><path d="M57.735,115.35677a5.50364,5.50364,0,0,0-.877-3.42285,3.2869,3.2869,0,0,0-2.73-1.12695,3.41128,3.41128,0,0,0-2.94336,1.28711,6.60472,6.60472,0,0,0-.91748,3.86132,5.79777,5.79777,0,0,0,.856,3.4834A3.52906,3.52906,0,0,0,54.11,120.596c.604,0,1.62793-.04688,3.13134-.14453l.19727-.0127-.06055-1.00195-.74218.07422-1.22266.07226q-.63721.03663-1.104.03614a3.81572,3.81572,0,0,1-1.84229-.36426,1.94213,1.94213,0,0,1-.88965-1.1084,6.26783,6.26783,0,0,1-.26172-1.99316H57.735Zm-6.43262-.17969a4.18339,4.18339,0,0,1,.73047-2.541,2.55732,2.55732,0,0,1,2.11328-.85157,2.19067,2.19067,0,0,1,1.90723.80665,4.60554,4.60554,0,0,1,.6123,2.58593Z" fill="#232325"/><path d="M64.1149,110.79329a9.27074,9.27074,0,0,0-3.37012,1.4043v-1.22754H59.73209v9.46289h1.03076v-7.12011l.44873-.26465a6.36735,6.36735,0,0,1,1.30664-.68164,8.60668,8.60668,0,0,1,1.67383-.53125l.16113-.03125v-1.05957Z" fill="#232325"/><polygon points="71.606 110.97 68.959 119.456 68.473 119.456 65.916 110.97 64.774 110.97 67.708 120.433 69.777 120.433 72.71 110.97 71.606 110.97" fill="#232325"/><rect x="74.2189" y="110.97005" width="1.0127" height="9.46289" fill="#232325"/><rect x="74.20035" y="107.34408" width="1.01318" height="1.39355" fill="#232325"/><path d="M83.48746,119.42122l-2.34326.19825a3.5263,3.5263,0,0,1-1.79248-.3711,1.87518,1.87518,0,0,1-.82764-1.14551,8.65394,8.65394,0,0,1-.24609-2.32812,9.009,9.009,0,0,1,.26367-2.47266,1.95218,1.95218,0,0,1,.81885-1.166,3.3021,3.3021,0,0,1,1.6748-.35157,18.01289,18.01289,0,0,1,2.2041.17872l.20361.02734.09278-.95313-.186-.02832q-.97193-.14647-1.49365-.18359-.52294-.03661-1.12891-.03613a3.22354,3.22354,0,0,0-2.38037.80176,3.40053,3.40053,0,0,0-.96093,1.7998,12.85529,12.85529,0,0,0-.1753,2.25684,9.88575,9.88575,0,0,0,.32617,2.833,2.788,2.788,0,0,0,1.17237,1.6045,4.34673,4.34673,0,0,0,2.29.51074c.44043,0,1.23437-.06153,2.36035-.18262l.18848-.02051Z" fill="#232325"/><path d="M92.31168,115.35677a5.50358,5.50358,0,0,0-.877-3.42285,3.2869,3.2869,0,0,0-2.73-1.12695,3.41128,3.41128,0,0,0-2.94336,1.28711,6.60472,6.60472,0,0,0-.91748,3.86132,5.79777,5.79777,0,0,0,.856,3.4834,3.52906,3.52906,0,0,0,2.98682,1.15723c.604,0,1.62793-.04688,3.13134-.14453l.19727-.0127-.06055-1.00195-.74218.07422-1.22266.07226q-.63722.03663-1.104.03614a3.81572,3.81572,0,0,1-1.84229-.36426,1.94213,1.94213,0,0,1-.88965-1.1084,6.26783,6.26783,0,0,1-.26172-1.99316h6.41944Zm-6.43262-.17969a4.18339,4.18339,0,0,1,.73047-2.541,2.55732,2.55732,0,0,1,2.11328-.85157,2.19067,2.19067,0,0,1,1.90723.80665,4.60554,4.60554,0,0,1,.6123,2.58593Z" fill="#232325"/><path d="M100.39224,116.262a2.1036,2.1036,0,0,0-1.03759-.78222,11.18463,11.18463,0,0,0-1.91016-.46289c-.79639-.14746-1.33106-.25879-1.63477-.34082a1.45612,1.45612,0,0,1-.6958-.40723,1.2354,1.2354,0,0,1-.26318-.87012,1.41966,1.41966,0,0,1,.53076-1.20312,3.11224,3.11224,0,0,1,1.86377-.42969q.46435,0,1.26025.07129.79981.07325,1.6626.21582l.21729.03613.06054-.97168-.63134-.12695a16.4571,16.4571,0,0,0-2.49707-.165,4.87723,4.87723,0,0,0-2.57129.56543,2.80345,2.80345,0,0,0-.65186,3.34668,2.05245,2.05245,0,0,0,.98926.75781,8.9605,8.9605,0,0,0,1.90186.47364c.11328.02441.2832.0498.50244.07421a8.10187,8.10187,0,0,1,1.28125.27344,1.35563,1.35563,0,0,1,.667.47656A1.65825,1.65825,0,0,1,99.694,117.805a1.60077,1.60077,0,0,1-.55566,1.374,3.15683,3.15683,0,0,1-1.875.44043,23.20516,23.20516,0,0,1-3.05274-.32422l-.20312-.03125-.11865,1.01367.71826.09863a19.422,19.422,0,0,0,2.52929.21973,4.44727,4.44727,0,0,0,2.68457-.67481,3.12993,3.12993,0,0,0,.57129-3.65918Z" fill="#232325"/><path d="M1.99205,93.84505a.29254.29254,0,0,1-.08887-.21582v-17.166a.30343.30343,0,0,1,.30469-.30469H5.17906a.30341.30341,0,0,1,.30468.30469v7.11035c0,.05078.01661.08008.05079.08886a.10443.10443,0,0,0,.10156-.03808l5.86572-7.28809a.48307.48307,0,0,1,.38135-.17773h3.35156q.20288,0,.25391.11426a.27411.27411,0,0,1-.05078.2666l-5.6626,7.2373a.14529.14529,0,0,0-.02539.17774l5.99267,9.624a1.08889,1.08889,0,0,1,.05078.17773c0,.11817-.08447.17774-.2539.17774H12.18785a.36277.36277,0,0,1-.35547-.20313l-4.52-7.31347a.08264.08264,0,0,0-.07617-.05078.14994.14994,0,0,0-.102.05078L5.53453,88.42318a.39064.39064,0,0,0-.05079.15234v5.05371a.30341.30341,0,0,1-.30468.30469H2.20787A.29257.29257,0,0,1,1.99205,93.84505Z" fill="#232325"/><path d="M25.2523,93.84505a.29258.29258,0,0,1-.08887-.21582v-17.166a.30343.30343,0,0,1,.30469-.30469h2.97119a.30343.30343,0,0,1,.30469.30469v17.166a.30343.30343,0,0,1-.30469.30469H25.46812A.29258.29258,0,0,1,25.2523,93.84505Z" fill="#232325"/><path d="M49.50279,76.2474a.29555.29555,0,0,1,.21582-.08887h2.9707a.30343.30343,0,0,1,.30469.30469v17.166a.30343.30343,0,0,1-.30469.30469H49.82017a.36278.36278,0,0,1-.35547-.20313L42.88755,82.86263c-.03418-.05078-.06787-.07227-.10156-.06348-.03418.00879-.05078.04688-.05078.11426L42.786,93.62923a.30343.30343,0,0,1-.30469.30469H39.51011a.30343.30343,0,0,1-.30469-.30469v-17.166a.30343.30343,0,0,1,.30469-.30469h2.86963a.36519.36519,0,0,1,.35547.20312L49.287,87.179c.03369.05078.06738.07226.10156.06347.03369-.00781.05078-.0459.05078-.11426l-.02539-10.665A.29412.29412,0,0,1,49.50279,76.2474Z" fill="#232325"/><path d="M66.24937,93.34993a5.70164,5.70164,0,0,1-2.32373-2.19628,6.33744,6.33744,0,0,1-.8252-3.26368v-5.6875a6.40956,6.40956,0,0,1,.8252-3.27636,5.60185,5.60185,0,0,1,2.32373-2.19629,8.06223,8.06223,0,0,1,6.86865-.0127,5.78643,5.78643,0,0,1,2.311,2.06934,5.343,5.343,0,0,1,.82519,2.9082v.17774a.3034.3034,0,0,1-.30469.30468H72.97837a.3034.3034,0,0,1-.30468-.30468v-.07618a2.65809,2.65809,0,0,0-.8125-1.96875,3.2864,3.2864,0,0,0-4.355.05078,3.05807,3.05807,0,0,0-.8252,2.22266v5.89063a2.93717,2.93717,0,0,0,.88867,2.22265,3.13512,3.13512,0,0,0,2.26026.85059,3.05888,3.05888,0,0,0,2.10742-.69824,2.46431,2.46431,0,0,0,.78711-1.94336V87.2806a.11253.11253,0,0,0-.127-.127H69.75376a.30341.30341,0,0,1-.30468-.30469V84.513a.30341.30341,0,0,1,.30468-.30469h6.1958a.30341.30341,0,0,1,.30469.30469v3.35156a6.646,6.646,0,0,1-.8125,3.35254,5.36816,5.36816,0,0,1-2.29834,2.1709,7.54778,7.54778,0,0,1-3.44043.749A7.32011,7.32011,0,0,1,66.24937,93.34993Z" fill="#232325"/><path d="M88.90025,93.48958a5.24607,5.24607,0,0,1-2.34912-1.85351,4.84627,4.84627,0,0,1-.8252-2.80664v-.5586a.30341.30341,0,0,1,.30469-.30468h2.895a.30341.30341,0,0,1,.30469.30468v.38086a2.07565,2.07565,0,0,0,.93945,1.71485,4.16352,4.16352,0,0,0,2.53955.69824,3.003,3.003,0,0,0,2.00586-.57129,1.79284,1.79284,0,0,0,.66016-1.41016A1.42212,1.42212,0,0,0,94.9691,88.055a3.598,3.598,0,0,0-1.1045-.73633q-.69873-.31639-2.22168-.876a21.64176,21.64176,0,0,1-2.88232-1.19336,5.79738,5.79738,0,0,1-1.981-1.66309,4.17957,4.17957,0,0,1-.7998-2.60254,4.5831,4.5831,0,0,1,.78711-2.667,5.01341,5.01341,0,0,1,2.18408-1.752,7.99831,7.99831,0,0,1,3.2251-.60938,8.24217,8.24217,0,0,1,3.44043.68555,5.61528,5.61528,0,0,1,2.36181,1.917,4.90553,4.90553,0,0,1,.85059,2.85742v.38086a.30343.30343,0,0,1-.30469.30469H95.60386a.30343.30343,0,0,1-.30469-.30469V81.5931a2.30945,2.30945,0,0,0-.876-1.81641,3.57459,3.57459,0,0,0-2.39942-.749,3.04173,3.04173,0,0,0-1.8667.50781,1.65478,1.65478,0,0,0-.67285,1.39746,1.52365,1.52365,0,0,0,.39356,1.06641,3.4458,3.4458,0,0,0,1.168.77441q.7749.34278,2.3999.92676a29.97558,29.97558,0,0,1,2.83154,1.168,5.65487,5.65487,0,0,1,1.85352,1.51074,3.96539,3.96539,0,0,1,.82519,2.60254,4.54818,4.54818,0,0,1-1.752,3.77148A7.45882,7.45882,0,0,1,92.45542,94.137,9.03421,9.03421,0,0,1,88.90025,93.48958Z" fill="#232325"/></svg>